name ./resultDataOpenSim/trcMotMarkerGrf/sub09/grf-13-05.mot
datacolumns 19
datarows 17
range 0.50400000 0.56800000
endheader

                time	     ground_force_vx	     ground_force_vy	     ground_force_vz	     ground_force_px	     ground_force_py	     ground_force_pz	   l_ground_force_vx	   l_ground_force_vy	   l_ground_force_vz	   l_ground_force_px	   l_ground_force_py	   l_ground_force_pz	     ground_torque_x	     ground_torque_y	     ground_torque_z	   l_ground_torque_x	   l_ground_torque_y	   l_ground_torque_z	
          0.50400000	         11.51459709	        412.66013457	        -29.27867390	         -0.59494489	          0.00000000	          0.10641549	          0.00000000	          0.00000000	          0.00000000	          0.00000000	          0.00000000	          0.00000000	          0.00000000	          3.27567526	          0.00000000	          0.00000000	          0.00000000	          0.00000000	
          0.50800000	         14.01530209	        418.19312404	        -29.00330460	         -0.59407856	          0.00000000	          0.10659660	          0.00000000	          0.00000000	          0.00000000	          0.00000000	          0.00000000	          0.00000000	          0.00000000	          3.55404830	          0.00000000	          0.00000000	          0.00000000	          0.00000000	
          0.51200000	         16.48826000	        424.05079780	        -28.35493917	         -0.59325229	          0.00000000	          0.10677124	          0.00000000	          0.00000000	          0.00000000	          0.00000000	          0.00000000	          0.00000000	          0.00000000	          3.91149391	          0.00000000	          0.00000000	          0.00000000	          0.00000000	
          0.51600000	         18.87891375	        430.18290351	        -27.42970054	         -0.59244431	          0.00000000	          0.10696847	          0.00000000	          0.00000000	          0.00000000	          0.00000000	          0.00000000	          0.00000000	          0.00000000	          4.33488370	          0.00000000	          0.00000000	          0.00000000	          0.00000000	
          0.52000000	         21.22070269	        436.56289671	        -26.35974140	         -0.59165289	          0.00000000	          0.10721239	          0.00000000	          0.00000000	          0.00000000	          0.00000000	          0.00000000	          0.00000000	          0.00000000	          4.80457671	          0.00000000	          0.00000000	          0.00000000	          0.00000000	
          0.52400000	         23.60671139	        443.20466216	        -25.30091222	         -0.59089318	          0.00000000	          0.10752419	          0.00000000	          0.00000000	          0.00000000	          0.00000000	          0.00000000	          0.00000000	          0.00000000	          5.29663573	          0.00000000	          0.00000000	          0.00000000	          0.00000000	
          0.52800000	         26.13564427	        450.15337435	        -24.41705033	         -0.59021834	          0.00000000	          0.10789891	          0.00000000	          0.00000000	          0.00000000	          0.00000000	          0.00000000	          0.00000000	          0.00000000	          5.78548787	          0.00000000	          0.00000000	          0.00000000	          0.00000000	
          0.53200000	         28.88584987	        457.41288573	        -23.85165990	         -0.58970117	          0.00000000	          0.10832665	          0.00000000	          0.00000000	          0.00000000	          0.00000000	          0.00000000	          0.00000000	          0.00000000	          6.24650757	          0.00000000	          0.00000000	          0.00000000	          0.00000000	
          0.53600000	         31.90826292	        464.84338139	        -23.69870464	         -0.58926200	          0.00000000	          0.10884820	          0.00000000	          0.00000000	          0.00000000	          0.00000000	          0.00000000	          0.00000000	          0.00000000	          6.65814195	          0.00000000	          0.00000000	          0.00000000	          0.00000000	
          0.54000000	         35.19286225	        472.20633478	        -24.00613141	         -0.58865673	          0.00000000	          0.10954270	          0.00000000	          0.00000000	          0.00000000	          0.00000000	          0.00000000	          0.00000000	          0.00000000	          7.00333379	          0.00000000	          0.00000000	          0.00000000	          0.00000000	
          0.54400000	         38.65632440	        479.39514122	        -24.79818553	         -0.58770167	          0.00000000	          0.11044169	          0.00000000	          0.00000000	          0.00000000	          0.00000000	          0.00000000	          0.00000000	          0.00000000	          7.27000447	          0.00000000	          0.00000000	          0.00000000	          0.00000000	
          0.54800000	         42.19722784	        486.59167167	        -26.07687601	         -0.58647791	          0.00000000	          0.11148194	          0.00000000	          0.00000000	          0.00000000	          0.00000000	          0.00000000	          0.00000000	          0.00000000	          7.45048081	          0.00000000	          0.00000000	          0.00000000	          0.00000000	
          0.55200000	         45.74586050	        494.14265572	        -27.81229133	         -0.58524585	          0.00000000	          0.11255586	          0.00000000	          0.00000000	          0.00000000	          0.00000000	          0.00000000	          0.00000000	          0.00000000	          7.54017803	          0.00000000	          0.00000000	          0.00000000	          0.00000000	
          0.55600000	         49.24759697	        502.28429103	        -29.94716749	         -0.58416171	          0.00000000	          0.11359683	          0.00000000	          0.00000000	          0.00000000	          0.00000000	          0.00000000	          0.00000000	          0.00000000	          7.53629820	          0.00000000	          0.00000000	          0.00000000	          0.00000000	
          0.56000000	         52.64458252	        510.99958424	        -32.41049888	         -0.58312069	          0.00000000	          0.11461053	          0.00000000	          0.00000000	          0.00000000	          0.00000000	          0.00000000	          0.00000000	          0.00000000	          7.43729186	          0.00000000	          0.00000000	          0.00000000	          0.00000000	
          0.56400000	         55.91801596	        520.14004122	        -35.13079679	         -0.58189949	          0.00000000	          0.11563276	          0.00000000	          0.00000000	          0.00000000	          0.00000000	          0.00000000	          0.00000000	          0.00000000	          7.24333448	          0.00000000	          0.00000000	          0.00000000	          0.00000000	
          0.56800000	         59.13382222	        529.67302888	        -38.04040620	         -0.58043909	          0.00000000	          0.11665555	          0.00000000	          0.00000000	          0.00000000	          0.00000000	          0.00000000	          0.00000000	          0.00000000	          6.95751748	          0.00000000	          0.00000000	          0.00000000	          0.00000000	
